<?xml version="1.0" encoding="UTF-8"?>
<!DOCTYPE svg PUBLIC "-//W3C//DTD SVG 1.1//EN" "http://www.w3.org/Graphics/SVG/1.1/DTD/svg11.dtd">
<!-- Creator: CorelDRAW 2020 (64 Bit) -->
<svg xmlns="http://www.w3.org/2000/svg" xml:space="preserve" width="768px" height="188px" version="1.1" style="shape-rendering:geometricPrecision; text-rendering:geometricPrecision; image-rendering:optimizeQuality; fill-rule:evenodd; clip-rule:evenodd"
viewBox="0 0 888.67 217.86"
 xmlns:xlink="http://www.w3.org/1999/xlink"
 xmlns:xodm="http://www.corel.com/coreldraw/odm/2003">
 <defs>
  <style type="text/css">
   <![CDATA[
    .str0 {stroke:#D2D3D5;stroke-width:2.73;stroke-miterlimit:22.9256}
    .fil0 {fill:#D2D3D5}
   ]]>
  </style>
 </defs>
 <g id="Camada_x0020_1">
  <metadata id="CorelCorpID_0Corel-Layer"/>
  <g id="_2310473148272">
   <polygon class="fil0 str0" points="196.83,160.97 191.05,160.97 191.05,159.82 186.42,159.82 186.42,158.66 181.79,158.66 181.79,157.5 177.17,157.5 177.17,156.35 172.54,156.35 172.54,155.19 167.91,155.19 167.91,154.03 163.29,154.03 163.29,152.88 158.66,152.88 158.66,151.72 154.03,151.72 154.03,150.57 149.41,150.57 149.41,149.41 144.78,149.41 144.78,148.25 140.16,148.25 140.16,147.1 135.53,147.1 135.53,145.94 134.37,145.94 134.37,158.66 132.06,158.66 132.06,149.41 130.9,149.41 130.9,148.25 126.28,148.25 126.28,147.1 121.65,147.1 121.65,145.94 117.02,145.94 117.02,144.78 112.4,144.78 112.4,143.63 107.77,143.63 107.77,142.47 103.15,142.47 103.15,141.31 98.52,141.31 98.52,140.16 93.89,140.16 93.89,139 90.42,139 90.42,137.84 85.8,137.84 85.8,136.69 81.17,136.69 81.17,135.53 76.54,135.53 76.54,134.37 71.92,134.37 71.92,133.22 69.6,133.22 69.6,158.66 67.29,158.66 67.29,115.87 66.13,115.87 66.13,117.02 64.98,117.02 64.98,115.87 60.35,115.87 60.35,114.71 55.72,114.71 55.72,113.55 51.1,113.55 51.1,112.4 46.47,112.4 46.47,111.24 41.85,111.24 41.85,110.08 37.22,110.08 37.22,108.93 32.59,108.93 32.59,107.77 27.97,107.77 27.97,106.61 23.34,106.61 23.34,105.46 18.71,105.46 18.71,104.3 16.4,104.3 16.4,105.46 15.25,105.46 15.25,106.61 12.93,106.61 12.93,107.77 11.78,107.77 11.78,108.93 10.62,108.93 10.62,110.08 8.31,110.08 8.31,111.24 7.15,111.24 7.15,112.4 5.99,112.4 5.99,113.55 3.68,113.55 3.68,114.71 2.52,114.71 2.52,115.87 1.37,115.87 1.37,208.39 196.83,208.39 "/>
   <polygon class="fil0 str0" points="376.1,31.44 374.94,31.44 374.94,33.75 373.78,33.75 373.78,37.22 372.63,37.22 372.63,39.53 371.47,39.53 371.47,41.85 370.31,41.85 370.31,45.32 369.16,45.32 369.16,47.63 368,47.63 368,51.1 366.85,51.1 366.85,53.41 365.69,53.41 365.69,56.88 364.53,56.88 364.53,59.19 363.38,59.19 363.38,62.66 362.22,62.66 362.22,64.98 361.06,64.98 361.06,67.29 359.91,67.29 359.91,70.76 358.75,70.76 358.75,73.07 357.59,73.07 357.59,76.54 356.44,76.54 356.44,78.86 355.28,78.86 355.28,82.33 354.12,82.33 354.12,84.64 352.97,84.64 352.97,88.11 351.81,88.11 351.81,90.42 350.65,90.42 350.65,92.74 349.5,92.74 349.5,96.2 348.34,96.2 348.34,98.52 347.18,98.52 347.18,101.99 346.03,101.99 346.03,104.3 344.87,104.3 344.87,107.77 343.71,107.77 343.71,110.08 342.56,110.08 342.56,113.55 341.4,113.55 341.4,115.87 340.24,115.87 340.24,118.18 339.09,118.18 339.09,121.65 337.93,121.65 337.93,123.96 336.77,123.96 336.77,127.43 335.62,127.43 335.62,129.75 334.46,129.75 334.46,133.22 358.75,133.22 358.75,132.06 359.91,132.06 359.91,129.75 361.06,129.75 361.06,126.28 362.22,126.28 362.22,123.96 363.38,123.96 363.38,121.65 364.53,121.65 364.53,118.18 365.69,118.18 365.69,115.87 366.85,115.87 366.85,113.55 368,113.55 368,111.24 369.16,111.24 369.16,107.77 370.31,107.77 370.31,105.46 371.47,105.46 371.47,103.14 372.63,103.14 372.63,99.67 373.78,99.67 373.78,97.36 413.11,97.36 413.11,95.05 411.95,95.05 411.95,91.58 410.8,91.58 410.8,88.11 409.64,88.11 409.64,85.8 408.48,85.8 408.48,82.33 407.33,82.33 407.33,78.86 406.17,78.86 406.17,76.54 380.72,76.54 380.72,74.23 381.88,74.23 381.88,71.92 383.04,71.92 383.04,68.45 384.19,68.45 384.19,66.13 385.35,66.13 385.35,62.66 386.51,62.66 386.51,60.35 387.66,60.35 387.66,56.88 388.82,56.88 388.82,54.57 389.98,54.57 389.98,52.26 391.13,52.26 391.13,48.79 392.29,48.79 392.29,46.47 393.45,46.47 393.45,43 394.6,43 394.6,40.69 395.76,40.69 395.76,37.22 396.92,37.22 396.92,34.91 398.07,34.91 398.07,32.59 399.23,32.59 399.23,29.12 400.39,29.12 400.39,31.44 401.54,31.44 401.54,33.75 402.7,33.75 402.7,37.22 403.86,37.22 403.86,40.69 405.01,40.69 405.01,43 406.17,43 406.17,46.47 407.33,46.47 407.33,48.79 408.48,48.79 408.48,52.26 409.64,52.26 409.64,55.72 410.8,55.72 410.8,58.04 411.95,58.04 411.95,61.51 413.11,61.51 413.11,63.82 414.27,63.82 414.27,67.29 415.42,67.29 415.42,70.76 416.58,70.76 416.58,73.07 417.74,73.07 417.74,76.54 418.89,76.54 418.89,78.86 420.05,78.86 420.05,82.33 421.21,82.33 421.21,85.8 422.36,85.8 422.36,88.11 423.52,88.11 423.52,91.58 424.68,91.58 424.68,93.89 425.83,93.89 425.83,97.36 426.99,97.36 426.99,100.83 428.15,100.83 428.15,103.14 429.3,103.14 429.3,106.61 430.46,106.61 430.46,108.93 431.61,108.93 431.61,112.4 432.77,112.4 432.77,115.87 433.93,115.87 433.93,118.18 435.08,118.18 435.08,121.65 436.24,121.65 436.24,125.12 437.4,125.12 437.4,127.43 438.55,127.43 438.55,130.9 439.71,130.9 439.71,133.22 464,133.22 464,132.06 462.84,132.06 462.84,128.59 461.69,128.59 461.69,126.28 460.53,126.28 460.53,122.81 459.37,122.81 459.37,120.49 458.22,120.49 458.22,117.02 457.06,117.02 457.06,114.71 455.9,114.71 455.9,111.24 454.75,111.24 454.75,110.08 455.9,110.08 455.9,107.77 457.06,107.77 457.06,104.3 458.22,104.3 458.22,101.99 459.37,101.99 459.37,99.67 460.53,99.67 460.53,97.36 499.85,97.36 499.85,95.05 498.7,95.05 498.7,92.74 497.54,92.74 497.54,89.27 496.38,89.27 496.38,85.8 495.23,85.8 495.23,82.33 494.07,82.33 494.07,80.01 492.91,80.01 492.91,76.54 467.47,76.54 467.47,73.07 468.62,73.07 468.62,70.76 469.78,70.76 469.78,68.45 470.94,68.45 470.94,64.98 472.09,64.98 472.09,62.66 473.25,62.66 473.25,59.19 474.41,59.19 474.41,56.88 475.56,56.88 475.56,53.41 476.72,53.41 476.72,51.1 477.88,51.1 477.88,48.79 479.03,48.79 479.03,45.32 480.19,45.32 480.19,43 481.35,43 481.35,39.53 482.5,39.53 482.5,37.22 483.66,37.22 483.66,33.75 484.82,33.75 484.82,31.44 485.97,31.44 485.97,29.12 487.13,29.12 487.13,31.44 488.29,31.44 488.29,34.91 489.44,34.91 489.44,38.38 490.6,38.38 490.6,40.69 491.76,40.69 491.76,44.16 492.91,44.16 492.91,46.47 494.07,46.47 494.07,49.94 495.23,49.94 495.23,53.41 496.38,53.41 496.38,55.72 497.54,55.72 497.54,59.19 498.7,59.19 498.7,61.51 499.85,61.51 499.85,64.98 501.01,64.98 501.01,68.45 502.17,68.45 502.17,70.76 503.32,70.76 503.32,74.23 504.48,74.23 504.48,76.54 505.64,76.54 505.64,80.01 506.79,80.01 506.79,83.48 507.95,83.48 507.95,85.8 509.1,85.8 509.1,89.27 510.26,89.27 510.26,91.58 511.42,91.58 511.42,95.05 512.57,95.05 512.57,98.52 513.73,98.52 513.73,100.83 514.89,100.83 514.89,104.3 516.04,104.3 516.04,106.61 517.2,106.61 517.2,110.08 518.36,110.08 518.36,113.55 519.51,113.55 519.51,115.87 520.67,115.87 520.67,119.34 521.83,119.34 521.83,121.65 522.98,121.65 522.98,125.12 524.14,125.12 524.14,128.59 525.3,128.59 525.3,130.9 526.45,130.9 526.45,133.22 549.59,133.22 549.59,129.75 548.43,129.75 548.43,126.28 547.27,126.28 547.27,123.96 546.12,123.96 546.12,120.49 544.96,120.49 544.96,118.18 543.8,118.18 543.8,114.71 542.65,114.71 542.65,112.4 541.49,112.4 541.49,108.93 540.33,108.93 540.33,106.61 539.18,106.61 539.18,103.14 538.02,103.14 538.02,100.83 536.86,100.83 536.86,97.36 535.71,97.36 535.71,95.05 534.55,95.05 534.55,91.58 533.39,91.58 533.39,89.27 532.24,89.27 532.24,85.8 531.08,85.8 531.08,83.48 529.92,83.48 529.92,80.01 528.77,80.01 528.77,77.7 527.61,77.7 527.61,74.23 526.45,74.23 526.45,71.92 525.3,71.92 525.3,68.45 524.14,68.45 524.14,66.13 522.98,66.13 522.98,62.66 521.83,62.66 521.83,60.35 520.67,60.35 520.67,56.88 519.51,56.88 519.51,54.57 518.36,54.57 518.36,51.1 517.2,51.1 517.2,48.79 516.04,48.79 516.04,45.32 514.89,45.32 514.89,43 513.73,43 513.73,39.53 512.57,39.53 512.57,37.22 511.42,37.22 511.42,33.75 510.26,33.75 510.26,31.44 509.1,31.44 509.1,27.97 462.84,27.97 462.84,30.28 461.69,30.28 461.69,33.75 460.53,33.75 460.53,36.06 459.37,36.06 459.37,38.38 458.22,38.38 458.22,41.85 457.06,41.85 457.06,44.16 455.9,44.16 455.9,47.63 454.75,47.63 454.75,49.94 453.59,49.94 453.59,53.41 452.43,53.41 452.43,55.72 451.28,55.72 451.28,59.19 450.12,59.19 450.12,61.51 448.96,61.51 448.96,63.82 447.81,63.82 447.81,67.29 446.65,67.29 446.65,69.6 445.49,69.6 445.49,73.07 444.34,73.07 444.34,75.39 443.18,75.39 443.18,78.86 442.02,78.86 442.02,76.54 440.87,76.54 440.87,74.23 439.71,74.23 439.71,70.76 438.55,70.76 438.55,68.45 437.4,68.45 437.4,64.98 436.24,64.98 436.24,62.66 435.08,62.66 435.08,59.19 433.93,59.19 433.93,56.88 432.77,56.88 432.77,53.41 431.61,53.41 431.61,51.1 430.46,51.1 430.46,47.63 429.3,47.63 429.3,45.32 428.15,45.32 428.15,41.85 426.99,41.85 426.99,39.53 425.83,39.53 425.83,36.06 424.68,36.06 424.68,33.75 423.52,33.75 423.52,30.28 422.36,30.28 422.36,27.97 376.1,27.97 "/>
   <polygon class="fil0 str0" points="845.67,27.97 800.56,27.97 800.56,29.12 799.41,29.12 799.41,32.59 798.25,32.59 798.25,34.91 797.09,34.91 797.09,37.22 795.94,37.22 795.94,40.69 794.78,40.69 794.78,43 793.62,43 793.62,46.47 792.47,46.47 792.47,48.79 791.31,48.79 791.31,52.26 790.15,52.26 790.15,54.57 789,54.57 789,58.04 787.84,58.04 787.84,60.35 786.68,60.35 786.68,63.82 785.53,63.82 785.53,66.13 784.37,66.13 784.37,68.45 783.21,68.45 783.21,71.92 782.06,71.92 782.06,74.23 780.9,74.23 780.9,77.7 779.75,77.7 779.75,80.01 778.59,80.01 778.59,83.48 777.43,83.48 777.43,85.8 776.28,85.8 776.28,89.27 775.12,89.27 775.12,91.58 773.96,91.58 773.96,93.89 772.81,93.89 772.81,97.36 771.65,97.36 771.65,99.67 770.49,99.67 770.49,103.14 769.34,103.14 769.34,105.46 768.18,105.46 768.18,108.93 767.02,108.93 767.02,111.24 765.87,111.24 765.87,114.71 764.71,114.71 764.71,117.02 763.55,117.02 763.55,119.34 762.4,119.34 762.4,122.81 761.24,122.81 761.24,125.12 760.08,125.12 760.08,128.59 758.93,128.59 758.93,130.9 757.77,130.9 757.77,133.22 783.21,133.22 783.21,130.9 784.37,130.9 784.37,127.43 785.53,127.43 785.53,125.12 786.68,125.12 786.68,122.81 787.84,122.81 787.84,119.34 789,119.34 789,117.02 790.15,117.02 790.15,114.71 791.31,114.71 791.31,111.24 792.47,111.24 792.47,108.93 793.62,108.93 793.62,106.61 794.78,106.61 794.78,104.3 795.94,104.3 795.94,100.83 797.09,100.83 797.09,98.52 798.25,98.52 798.25,97.36 837.57,97.36 837.57,96.2 836.42,96.2 836.42,93.89 835.26,93.89 835.26,90.42 834.1,90.42 834.1,86.95 832.95,86.95 832.95,83.48 831.79,83.48 831.79,81.17 830.63,81.17 830.63,77.7 829.48,77.7 829.48,76.54 804.03,76.54 804.03,75.39 805.19,75.39 805.19,73.07 806.35,73.07 806.35,69.6 807.5,69.6 807.5,67.29 808.66,67.29 808.66,63.82 809.82,63.82 809.82,61.51 810.97,61.51 810.97,58.04 812.13,58.04 812.13,55.72 813.29,55.72 813.29,52.26 814.44,52.26 814.44,49.94 815.6,49.94 815.6,47.63 816.76,47.63 816.76,44.16 817.91,44.16 817.91,41.85 819.07,41.85 819.07,38.38 820.23,38.38 820.23,36.06 821.38,36.06 821.38,32.59 822.54,32.59 822.54,30.28 824.85,30.28 824.85,32.59 826.01,32.59 826.01,36.06 827.16,36.06 827.16,39.53 828.32,39.53 828.32,41.85 829.48,41.85 829.48,45.32 830.63,45.32 830.63,47.63 831.79,47.63 831.79,51.1 832.95,51.1 832.95,54.57 834.1,54.57 834.1,56.88 835.26,56.88 835.26,60.35 836.42,60.35 836.42,62.66 837.57,62.66 837.57,66.13 838.73,66.13 838.73,69.6 839.89,69.6 839.89,71.92 841.04,71.92 841.04,75.39 842.2,75.39 842.2,77.7 843.36,77.7 843.36,81.17 844.51,81.17 844.51,84.64 845.67,84.64 845.67,86.95 846.83,86.95 846.83,90.42 847.98,90.42 847.98,92.74 849.14,92.74 849.14,96.2 850.3,96.2 850.3,99.67 851.45,99.67 851.45,101.99 852.61,101.99 852.61,105.46 853.77,105.46 853.77,107.77 854.92,107.77 854.92,111.24 856.08,111.24 856.08,114.71 857.24,114.71 857.24,117.02 858.39,117.02 858.39,120.49 859.55,120.49 859.55,122.81 860.71,122.81 860.71,126.28 861.86,126.28 861.86,129.75 863.02,129.75 863.02,132.06 864.18,132.06 864.18,133.22 887.31,133.22 887.31,130.9 886.15,130.9 886.15,127.43 884.99,127.43 884.99,125.12 883.84,125.12 883.84,121.65 882.68,121.65 882.68,119.34 881.52,119.34 881.52,115.87 880.37,115.87 880.37,113.55 879.21,113.55 879.21,110.08 878.06,110.08 878.06,107.77 876.9,107.77 876.9,104.3 875.74,104.3 875.74,101.99 874.59,101.99 874.59,98.52 873.43,98.52 873.43,96.2 872.27,96.2 872.27,92.74 871.12,92.74 871.12,90.42 869.96,90.42 869.96,86.95 868.8,86.95 868.8,84.64 867.65,84.64 867.65,81.17 866.49,81.17 866.49,78.86 865.33,78.86 865.33,75.39 864.18,75.39 864.18,73.07 863.02,73.07 863.02,69.6 861.86,69.6 861.86,67.29 860.71,67.29 860.71,63.82 859.55,63.82 859.55,61.51 858.39,61.51 858.39,58.04 857.24,58.04 857.24,55.72 856.08,55.72 856.08,52.26 854.92,52.26 854.92,49.94 853.77,49.94 853.77,46.47 852.61,46.47 852.61,44.16 851.45,44.16 851.45,40.69 850.3,40.69 850.3,38.38 849.14,38.38 849.14,34.91 847.98,34.91 847.98,32.59 846.83,32.59 846.83,29.12 845.67,29.12 "/>
   <polygon class="fil0 str0" points="653.68,37.22 652.52,37.22 652.52,41.85 651.36,41.85 651.36,46.47 650.21,46.47 650.21,53.41 649.05,53.41 649.05,80.01 650.21,80.01 650.21,86.95 651.36,86.95 651.36,92.74 652.52,92.74 652.52,96.2 653.68,96.2 653.68,99.67 654.83,99.67 654.83,101.99 655.99,101.99 655.99,104.3 657.15,104.3 657.15,106.61 658.3,106.61 658.3,108.93 659.46,108.93 659.46,110.08 660.62,110.08 660.62,112.4 661.77,112.4 661.77,113.55 662.93,113.55 662.93,114.71 664.09,114.71 664.09,115.87 665.24,115.87 665.24,117.02 666.4,117.02 666.4,118.18 667.56,118.18 667.56,119.34 668.71,119.34 668.71,120.49 669.87,120.49 669.87,121.65 671.03,121.65 671.03,122.81 673.34,122.81 673.34,123.96 674.5,123.96 674.5,125.12 676.81,125.12 676.81,126.28 679.12,126.28 679.12,127.43 681.44,127.43 681.44,128.59 684.91,128.59 684.91,129.75 688.37,129.75 688.37,130.9 691.84,130.9 691.84,132.06 697.63,132.06 697.63,133.22 711.51,133.22 711.51,134.37 716.13,134.37 716.13,133.22 731.17,133.22 731.17,132.06 736.95,132.06 736.95,130.9 741.58,130.9 741.58,129.75 745.05,129.75 745.05,128.59 748.52,128.59 748.52,127.43 750.83,127.43 750.83,71.92 728.86,71.92 728.86,73.07 727.7,73.07 727.7,110.08 726.54,110.08 726.54,111.24 719.6,111.24 719.6,112.4 706.88,112.4 706.88,111.24 699.94,111.24 699.94,110.08 696.47,110.08 696.47,108.93 694.16,108.93 694.16,107.77 691.84,107.77 691.84,106.61 689.53,106.61 689.53,105.46 687.22,105.46 687.22,104.3 686.06,104.3 686.06,103.14 684.91,103.14 684.91,101.99 683.75,101.99 683.75,100.83 682.59,100.83 682.59,99.67 681.44,99.67 681.44,97.36 680.28,97.36 680.28,96.2 679.12,96.2 679.12,93.89 677.97,93.89 677.97,91.58 676.81,91.58 676.81,88.11 675.65,88.11 675.65,84.64 674.5,84.64 674.5,77.7 673.34,77.7 673.34,54.57 674.5,54.57 674.5,49.94 675.65,49.94 675.65,46.47 676.81,46.47 676.81,43 677.97,43 677.97,40.69 679.12,40.69 679.12,39.53 680.28,39.53 680.28,37.22 681.44,37.22 681.44,34.91 653.68,34.91 "/>
   <polygon class="fil0 str0" points="266.22,27.97 232.68,27.97 232.68,29.12 231.53,29.12 231.53,31.44 230.37,31.44 230.37,33.75 229.21,33.75 229.21,36.06 228.06,36.06 228.06,39.53 226.9,39.53 226.9,44.16 225.74,44.16 225.74,48.79 224.59,48.79 224.59,59.19 223.43,59.19 223.43,73.07 224.59,73.07 224.59,83.48 225.74,83.48 225.74,89.27 226.9,89.27 226.9,93.89 228.06,93.89 228.06,97.36 229.21,97.36 229.21,100.83 230.37,100.83 230.37,103.14 231.53,103.14 231.53,105.46 232.68,105.46 232.68,107.77 233.84,107.77 233.84,108.93 234.99,108.93 234.99,111.24 236.15,111.24 236.15,112.4 237.31,112.4 237.31,113.55 238.46,113.55 238.46,115.87 239.62,115.87 239.62,117.02 240.78,117.02 240.78,118.18 241.93,118.18 241.93,119.34 244.25,119.34 244.25,120.49 245.4,120.49 245.4,121.65 246.56,121.65 246.56,122.81 248.87,122.81 248.87,123.96 250.03,123.96 250.03,125.12 252.34,125.12 252.34,126.28 254.66,126.28 254.66,127.43 256.97,127.43 256.97,128.59 260.44,128.59 260.44,129.75 263.91,129.75 263.91,130.9 267.38,130.9 267.38,132.06 273.16,132.06 273.16,133.22 288.2,133.22 288.2,134.37 291.67,134.37 291.67,133.22 306.7,133.22 306.7,132.06 312.49,132.06 312.49,130.9 317.11,130.9 317.11,129.75 320.58,129.75 320.58,128.59 324.05,128.59 324.05,127.43 326.37,127.43 326.37,105.46 322.9,105.46 322.9,106.61 320.58,106.61 320.58,107.77 317.11,107.77 317.11,108.93 313.64,108.93 313.64,110.08 307.86,110.08 307.86,111.24 300.92,111.24 300.92,112.4 283.57,112.4 283.57,111.24 276.63,111.24 276.63,110.08 273.16,110.08 273.16,108.93 269.69,108.93 269.69,107.77 267.38,107.77 267.38,106.61 265.07,106.61 265.07,105.46 263.91,105.46 263.91,104.3 261.6,104.3 261.6,103.14 260.44,103.14 260.44,101.99 259.28,101.99 259.28,100.83 258.13,100.83 258.13,99.67 256.97,99.67 256.97,97.36 255.81,97.36 255.81,96.2 254.66,96.2 254.66,93.89 253.5,93.89 253.5,91.58 252.34,91.58 252.34,89.27 251.19,89.27 251.19,85.8 250.03,85.8 250.03,81.17 248.87,81.17 248.87,73.07 247.72,73.07 247.72,59.19 248.87,59.19 248.87,52.26 250.03,52.26 250.03,47.63 251.19,47.63 251.19,44.16 252.34,44.16 252.34,41.85 253.5,41.85 253.5,39.53 254.66,39.53 254.66,38.38 255.81,38.38 255.81,37.22 256.97,37.22 256.97,34.91 258.13,34.91 258.13,33.75 259.28,33.75 259.28,32.59 261.6,32.59 261.6,31.44 262.75,31.44 262.75,30.28 263.91,30.28 263.91,29.12 266.22,29.12 "/>
   <polygon class="fil0 str0" points="591.22,27.97 568.09,27.97 568.09,133.22 647.89,133.22 647.89,132.06 649.05,132.06 649.05,111.24 591.22,111.24 "/>
   <polygon class="fil0 str0" points="134.37,145.94 135.53,145.94 135.53,147.1 140.16,147.1 140.16,148.25 144.78,148.25 144.78,149.41 149.41,149.41 149.41,150.57 154.03,150.57 154.03,151.72 158.66,151.72 158.66,152.88 163.29,152.88 163.29,154.03 167.91,154.03 167.91,155.19 172.54,155.19 172.54,156.35 177.17,156.35 177.17,157.5 181.79,157.5 181.79,158.66 186.42,158.66 186.42,159.82 191.05,159.82 191.05,160.97 196.83,160.97 196.83,118.18 192.2,118.18 192.2,117.02 187.58,117.02 187.58,115.87 182.95,115.87 182.95,114.71 178.32,114.71 178.32,113.55 173.7,113.55 173.7,112.4 169.07,112.4 169.07,111.24 164.44,111.24 164.44,110.08 159.82,110.08 159.82,108.93 155.19,108.93 155.19,107.77 150.57,107.77 150.57,106.61 145.94,106.61 145.94,105.46 144.78,105.46 144.78,106.61 143.63,106.61 143.63,107.77 141.31,107.77 141.31,108.93 140.16,108.93 140.16,110.08 137.84,110.08 137.84,111.24 136.69,111.24 136.69,112.4 135.53,112.4 135.53,113.55 134.37,113.55 "/>
   <polygon class="fil0 str0" points="69.6,133.22 71.92,133.22 71.92,134.37 76.54,134.37 76.54,135.53 81.17,135.53 81.17,136.69 85.8,136.69 85.8,137.84 90.42,137.84 90.42,139 93.89,139 93.89,140.16 98.52,140.16 98.52,141.31 103.15,141.31 103.15,142.47 107.77,142.47 107.77,143.63 112.4,143.63 112.4,144.78 117.02,144.78 117.02,145.94 121.65,145.94 121.65,147.1 126.28,147.1 126.28,148.25 130.9,148.25 130.9,149.41 132.06,149.41 132.06,101.99 127.43,101.99 127.43,100.83 122.81,100.83 122.81,99.67 118.18,99.67 118.18,98.52 114.71,98.52 114.71,97.36 110.09,97.36 110.09,96.2 105.46,96.2 105.46,95.05 100.83,95.05 100.83,93.89 97.36,93.89 97.36,92.74 96.21,92.74 96.21,93.89 95.05,93.89 95.05,95.05 93.89,95.05 93.89,96.2 92.74,96.2 92.74,97.36 90.42,97.36 90.42,98.52 89.27,98.52 89.27,99.67 88.11,99.67 88.11,100.83 85.8,100.83 85.8,101.99 84.64,101.99 84.64,103.14 83.48,103.14 83.48,104.3 81.17,104.3 81.17,105.46 80.01,105.46 80.01,106.61 78.86,106.61 78.86,107.77 76.54,107.77 76.54,108.93 75.39,108.93 75.39,110.08 73.07,110.08 73.07,111.24 71.92,111.24 71.92,112.4 70.76,112.4 70.76,113.55 69.6,113.55 "/>
   <polygon class="fil0 str0" points="160.97,56.88 162.13,56.88 162.13,60.35 166.76,60.35 166.76,61.51 171.38,61.51 171.38,62.66 176.01,62.66 176.01,63.82 179.48,63.82 179.48,64.98 184.11,64.98 184.11,66.13 188.73,66.13 188.73,67.29 193.36,67.29 193.36,68.45 196.83,68.45 196.83,1.37 162.13,1.37 162.13,2.52 160.97,2.52 "/>
   <polygon class="fil0 str0" points="31.44,54.57 34.91,54.57 34.91,55.72 39.53,55.72 39.53,56.88 44.16,56.88 44.16,58.04 48.79,58.04 48.79,59.19 53.41,59.19 53.41,60.35 58.04,60.35 58.04,61.51 62.66,61.51 62.66,62.66 67.29,62.66 67.29,1.37 32.59,1.37 32.59,2.52 31.44,2.52 "/>
   <polygon class="fil0 str0" points="654.83,34.91 681.44,34.91 681.44,36.06 682.59,36.06 682.59,34.91 683.75,34.91 683.75,33.75 684.91,33.75 684.91,32.59 686.06,32.59 686.06,31.44 687.22,31.44 687.22,30.28 689.53,30.28 689.53,29.12 691.84,29.12 691.84,27.97 694.16,27.97 694.16,26.81 696.47,26.81 696.47,25.65 701.1,25.65 701.1,24.5 706.88,24.5 706.88,23.34 726.54,23.34 726.54,24.5 733.48,24.5 733.48,25.65 739.27,25.65 739.27,26.81 742.74,26.81 742.74,27.97 746.2,27.97 746.2,29.12 748.52,29.12 748.52,30.28 750.83,30.28 750.83,8.31 749.67,8.31 749.67,7.15 746.2,7.15 746.2,5.99 742.74,5.99 742.74,4.84 738.11,4.84 738.11,3.68 732.33,3.68 732.33,2.52 720.76,2.52 720.76,1.37 709.19,1.37 709.19,2.52 697.63,2.52 697.63,3.68 691.84,3.68 691.84,4.84 687.22,4.84 687.22,5.99 683.75,5.99 683.75,7.15 681.44,7.15 681.44,8.31 677.97,8.31 677.97,9.46 676.81,9.46 676.81,10.62 674.5,10.62 674.5,11.78 672.18,11.78 672.18,12.93 671.03,12.93 671.03,14.09 668.71,14.09 668.71,15.25 667.56,15.25 667.56,16.4 666.4,16.4 666.4,17.56 665.24,17.56 665.24,18.71 664.09,18.71 664.09,19.87 662.93,19.87 662.93,21.03 661.77,21.03 661.77,22.18 660.62,22.18 660.62,24.5 659.46,24.5 659.46,25.65 658.3,25.65 658.3,27.97 657.15,27.97 657.15,30.28 655.99,30.28 655.99,32.59 654.83,32.59 "/>
   <polygon class="fil0 str0" points="67.29,115.87 67.29,62.66 62.66,62.66 62.66,61.51 58.04,61.51 58.04,60.35 53.41,60.35 53.41,59.19 48.79,59.19 48.79,58.04 44.16,58.04 44.16,56.88 39.53,56.88 39.53,55.72 34.91,55.72 34.91,54.57 31.44,54.57 31.44,93.89 30.28,93.89 30.28,95.05 29.12,95.05 29.12,96.2 27.97,96.2 27.97,97.36 25.65,97.36 25.65,98.52 24.5,98.52 24.5,99.67 23.34,99.67 23.34,100.83 21.03,100.83 21.03,101.99 19.87,101.99 19.87,103.14 18.71,103.14 18.71,105.46 23.34,105.46 23.34,106.61 27.97,106.61 27.97,107.77 32.59,107.77 32.59,108.93 37.22,108.93 37.22,110.08 41.85,110.08 41.85,111.24 46.47,111.24 46.47,112.4 51.1,112.4 51.1,113.55 55.72,113.55 55.72,114.71 60.35,114.71 60.35,115.87 64.98,115.87 64.98,117.02 66.13,117.02 66.13,115.87 "/>
   <polygon class="fil0 str0" points="196.83,118.18 196.83,68.45 193.36,68.45 193.36,67.29 188.73,67.29 188.73,66.13 184.11,66.13 184.11,64.98 179.48,64.98 179.48,63.82 176.01,63.82 176.01,62.66 171.38,62.66 171.38,61.51 166.76,61.51 166.76,60.35 162.13,60.35 162.13,56.88 160.97,56.88 160.97,93.89 159.82,93.89 159.82,95.05 158.66,95.05 158.66,96.2 157.5,96.2 157.5,97.36 155.19,97.36 155.19,98.52 154.03,98.52 154.03,99.67 152.88,99.67 152.88,100.83 150.57,100.83 150.57,101.99 149.41,101.99 149.41,103.14 148.25,103.14 148.25,104.3 145.94,104.3 145.94,106.61 150.57,106.61 150.57,107.77 155.19,107.77 155.19,108.93 159.82,108.93 159.82,110.08 164.44,110.08 164.44,111.24 169.07,111.24 169.07,112.4 173.7,112.4 173.7,113.55 178.32,113.55 178.32,114.71 182.95,114.71 182.95,115.87 187.58,115.87 187.58,117.02 192.2,117.02 192.2,118.18 "/>
   <polygon class="fil0 str0" points="232.68,27.97 268.54,27.97 268.54,26.81 272.01,26.81 272.01,25.65 275.48,25.65 275.48,24.5 282.42,24.5 282.42,23.34 302.08,23.34 302.08,24.5 309.02,24.5 309.02,25.65 313.64,25.65 313.64,26.81 317.11,26.81 317.11,27.97 320.58,27.97 320.58,29.12 324.05,29.12 324.05,30.28 326.37,30.28 326.37,8.31 325.21,8.31 325.21,7.15 321.74,7.15 321.74,5.99 318.27,5.99 318.27,4.84 313.64,4.84 313.64,3.68 306.7,3.68 306.7,2.52 295.14,2.52 295.14,1.37 283.57,1.37 283.57,2.52 273.16,2.52 273.16,3.68 266.22,3.68 266.22,4.84 262.75,4.84 262.75,5.99 259.28,5.99 259.28,7.15 255.81,7.15 255.81,8.31 253.5,8.31 253.5,9.46 251.19,9.46 251.19,10.62 248.87,10.62 248.87,11.78 247.72,11.78 247.72,12.93 245.4,12.93 245.4,14.09 244.25,14.09 244.25,15.25 243.09,15.25 243.09,16.4 241.93,16.4 241.93,17.56 239.62,17.56 239.62,19.87 238.46,19.87 238.46,21.03 237.31,21.03 237.31,22.18 236.15,22.18 236.15,23.34 234.99,23.34 234.99,24.5 233.84,24.5 233.84,26.81 232.68,26.81 "/>
   <polygon class="fil0 str0" points="96.21,46.47 97.36,46.47 97.36,47.63 101.99,47.63 101.99,48.79 106.62,48.79 106.62,49.94 111.24,49.94 111.24,51.1 115.87,51.1 115.87,52.26 120.49,52.26 120.49,53.41 125.12,53.41 125.12,54.57 129.75,54.57 129.75,55.72 132.06,55.72 132.06,1.37 97.36,1.37 97.36,2.52 96.21,2.52 "/>
   <polygon class="fil0 str0" points="132.06,101.99 132.06,55.72 129.75,55.72 129.75,54.57 125.12,54.57 125.12,53.41 120.49,53.41 120.49,52.26 115.87,52.26 115.87,51.1 111.24,51.1 111.24,49.94 106.62,49.94 106.62,48.79 101.99,48.79 101.99,47.63 97.36,47.63 97.36,46.47 96.21,46.47 96.21,92.74 97.36,92.74 97.36,93.89 100.83,93.89 100.83,95.05 105.46,95.05 105.46,96.2 110.09,96.2 110.09,97.36 114.71,97.36 114.71,98.52 118.18,98.52 118.18,99.67 122.81,99.67 122.81,100.83 127.43,100.83 127.43,101.99 "/>
   <polygon class="fil0 str0" points="800.56,27.97 845.67,27.97 845.67,26.81 844.51,26.81 844.51,23.34 843.36,23.34 843.36,21.03 842.2,21.03 842.2,17.56 841.04,17.56 841.04,15.25 839.89,15.25 839.89,11.78 838.73,11.78 838.73,9.46 837.57,9.46 837.57,5.99 836.42,5.99 836.42,3.68 835.26,3.68 835.26,2.52 810.97,2.52 810.97,3.68 809.82,3.68 809.82,7.15 808.66,7.15 808.66,9.46 807.5,9.46 807.5,11.78 806.35,11.78 806.35,15.25 805.19,15.25 805.19,17.56 804.03,17.56 804.03,21.03 802.88,21.03 802.88,23.34 801.72,23.34 801.72,26.81 800.56,26.81 "/>
   <polygon class="fil0 str0" points="464,27.97 507.95,27.97 507.95,25.65 506.79,25.65 506.79,22.18 505.64,22.18 505.64,19.87 504.48,19.87 504.48,16.4 503.32,16.4 503.32,14.09 502.17,14.09 502.17,10.62 501.01,10.62 501.01,8.31 499.85,8.31 499.85,4.84 498.7,4.84 498.7,2.52 473.25,2.52 473.25,4.84 472.09,4.84 472.09,8.31 470.94,8.31 470.94,10.62 469.78,10.62 469.78,12.93 468.62,12.93 468.62,16.4 467.47,16.4 467.47,18.71 466.31,18.71 466.31,22.18 465.16,22.18 465.16,24.5 464,24.5 "/>
   <polygon class="fil0 str0" points="377.25,27.97 421.21,27.97 421.21,24.5 420.05,24.5 420.05,22.18 418.89,22.18 418.89,18.71 417.74,18.71 417.74,16.4 416.58,16.4 416.58,12.93 415.42,12.93 415.42,10.62 414.27,10.62 414.27,7.15 413.11,7.15 413.11,4.84 411.95,4.84 411.95,2.52 386.51,2.52 386.51,5.99 385.35,5.99 385.35,8.31 384.19,8.31 384.19,11.78 383.04,11.78 383.04,14.09 381.88,14.09 381.88,16.4 380.72,16.4 380.72,19.87 379.57,19.87 379.57,22.18 378.41,22.18 378.41,25.65 377.25,25.65 "/>
   <path class="fil0 str0" d="M767.02 180.64l-1.15 0 0 1.15 -17.35 0 0 -10.41 16.19 0 0 1.16 2.31 0 0 1.16 1.16 0 0 5.78 -1.16 0 0 1.16zm-23.13 -13.88l-1.15 0 0 37.01 1.15 0 0 1.15 4.63 0 0 -17.34 9.25 0 0 1.15 2.31 0 0 1.16 1.16 0 0 1.16 1.16 0 0 2.31 1.15 0 0 1.15 1.16 0 0 2.32 1.16 0 0 1.15 1.15 0 0 2.32 1.16 0 0 2.31 1.16 0 0 1.16 1.15 0 0 1.15 6.94 0 0 -1.15 -1.15 0 0 -1.16 -1.16 0 0 -2.31 -1.16 0 0 -2.32 -1.15 0 0 -1.15 -1.16 0 0 -2.32 -1.16 0 0 -1.15 -1.15 0 0 -2.31 -1.16 0 0 -1.16 -1.16 0 0 -1.16 -1.15 0 0 -2.31 3.47 0 0 -1.16 1.15 0 0 -1.15 1.16 0 0 -1.16 1.16 0 0 -2.31 1.15 0 0 -8.1 -1.15 0 0 -2.31 -1.16 0 0 -1.16 -1.16 0 0 -1.16 -2.31 0 0 -1.15 -4.63 0 0 -1.16 -19.66 0 0 1.16z"/>
   <polygon class="fil0 str0" points="461.69,166.76 460.53,166.76 460.53,204.92 489.44,204.92 489.44,199.14 466.31,199.14 466.31,187.58 487.13,187.58 487.13,181.79 466.31,181.79 466.31,171.38 488.29,171.38 488.29,170.23 489.44,170.23 489.44,166.76 488.29,166.76 488.29,165.6 461.69,165.6 "/>
   <path class="fil0 str0" d="M623.61 194.51l-1.16 0 0 2.32 -1.16 0 0 1.15 -2.31 0 0 1.16 -13.88 0 0 -27.76 12.72 0 0 1.16 2.32 0 0 1.16 1.15 0 0 1.15 1.16 0 0 1.16 1.16 0 0 2.31 1.15 0 0 13.88 -1.15 0 0 2.31zm-24.29 10.41l19.66 0 0 -1.15 3.47 0 0 -1.16 1.16 0 0 -1.16 2.31 0 0 -2.31 1.16 0 0 -1.16 1.15 0 0 -2.31 1.16 0 0 -2.31 1.16 0 0 -15.04 -1.16 0 0 -3.47 -1.16 0 0 -2.31 -1.15 0 0 -1.16 -1.16 0 0 -1.15 -1.16 0 0 -1.16 -1.15 0 0 -1.16 -2.32 0 0 -1.15 -5.78 0 0 -1.16 -16.19 0 0 39.32z"/>
   <path class="fil0 str0" d="M447.81 194.51l-1.16 0 0 1.16 -1.16 0 0 2.31 -2.31 0 0 1.16 -1.16 0 0 1.16 -11.56 0 0 -1.16 -2.31 0 0 -1.16 -1.16 0 0 -1.15 -1.16 0 0 -2.32 -1.15 0 0 -2.31 -1.16 0 0 -12.72 1.16 0 0 -3.47 1.15 0 0 -1.16 1.16 0 0 -1.15 1.16 0 0 -1.16 1.15 0 0 -1.16 3.47 0 0 -1.15 6.94 0 0 1.15 3.47 0 0 1.16 1.16 0 0 1.16 1.15 0 0 1.15 1.16 0 0 2.32 1.16 0 0 3.47 1.15 0 0 10.41 -1.15 0 0 3.46zm-13.88 -28.91l-4.63 0 0 1.16 -2.31 0 0 1.15 -2.31 0 0 1.16 -1.16 0 0 1.16 -1.16 0 0 1.15 -1.15 0 0 2.32 -1.16 0 0 1.15 -1.16 0 0 3.47 -1.15 0 0 13.88 1.15 0 0 3.47 1.16 0 0 2.31 1.16 0 0 1.16 1.15 0 0 1.16 1.16 0 0 1.15 1.16 0 0 1.16 1.15 0 0 1.16 2.32 0 0 1.15 3.46 0 0 1.16 9.26 0 0 -1.16 3.47 0 0 -1.15 2.31 0 0 -1.16 1.16 0 0 -1.16 1.15 0 0 -1.15 1.16 0 0 -1.16 1.16 0 0 -1.16 1.15 0 0 -2.31 1.16 0 0 -3.47 1.16 0 0 -12.72 -1.16 0 0 -3.47 -1.16 0 0 -2.31 -1.15 0 0 -1.16 -1.16 0 0 -2.31 -1.16 0 0 -1.16 -2.31 0 0 -1.16 -1.16 0 0 -1.15 -2.31 0 0 -1.16 -4.63 0 0 -1.16 -4.62 0 0 1.16z"/>
   <path class="fil0 str0" d="M300.92 193.36l-1.16 0 0 2.31 -1.15 0 0 1.16 -1.16 0 0 1.15 -1.16 0 0 1.16 -2.31 0 0 1.16 -10.41 0 0 -1.16 -2.31 0 0 -1.16 -1.16 0 0 -1.15 -1.15 0 0 -1.16 -1.16 0 0 -2.31 -1.16 0 0 -15.04 1.16 0 0 -2.31 1.16 0 0 -2.31 1.15 0 0 -1.16 2.32 0 0 -1.16 2.31 0 0 -1.15 8.09 0 0 1.15 2.32 0 0 1.16 2.31 0 0 1.16 1.16 0 0 2.31 1.15 0 0 1.16 1.16 0 0 4.62 1.16 0 0 8.1 -1.16 0 0 3.47zm-13.88 -27.76l-4.62 0 0 1.16 -2.32 0 0 1.15 -2.31 0 0 1.16 -1.16 0 0 1.16 -1.15 0 0 1.15 -1.16 0 0 1.16 -1.16 0 0 2.31 -1.15 0 0 3.47 -1.16 0 0 4.63 -1.16 0 0 5.78 1.16 0 0 4.63 1.16 0 0 2.31 1.15 0 0 2.31 1.16 0 0 1.16 1.16 0 0 1.16 1.15 0 0 1.15 1.16 0 0 1.16 1.16 0 0 1.16 2.31 0 0 1.15 2.31 0 0 1.16 10.41 0 0 -1.16 3.47 0 0 -1.15 1.16 0 0 -1.16 2.31 0 0 -1.16 1.16 0 0 -1.15 1.15 0 0 -1.16 1.16 0 0 -2.31 1.16 0 0 -2.32 1.15 0 0 -4.62 1.16 0 0 -9.25 -1.16 0 0 -3.47 -1.15 0 0 -3.47 -1.16 0 0 -1.16 -1.16 0 0 -1.16 -1.15 0 0 -1.15 -1.16 0 0 -1.16 -1.16 0 0 -1.16 -1.15 0 0 -1.15 -3.47 0 0 -1.16 -4.63 0 0 -1.16 -3.47 0 0 1.16z"/>
   <polygon class="fil0 str0" points="561.15,204.92 565.78,204.92 565.78,176.01 566.93,176.01 566.93,177.17 568.09,177.17 568.09,179.48 569.25,179.48 569.25,180.64 570.4,180.64 570.4,182.95 571.56,182.95 571.56,184.11 572.72,184.11 572.72,186.42 573.87,186.42 573.87,187.58 575.03,187.58 575.03,189.89 576.19,189.89 576.19,191.05 577.34,191.05 577.34,193.36 578.5,193.36 578.5,194.51 579.66,194.51 579.66,196.83 580.81,196.83 580.81,197.98 581.97,197.98 581.97,200.3 583.13,200.3 583.13,201.45 584.28,201.45 584.28,203.77 585.44,203.77 585.44,204.92 591.22,204.92 591.22,166.76 590.07,166.76 590.07,165.6 586.6,165.6 586.6,166.76 585.44,166.76 585.44,194.51 584.28,194.51 584.28,192.2 583.13,192.2 583.13,191.05 581.97,191.05 581.97,188.73 580.81,188.73 580.81,187.58 579.66,187.58 579.66,185.26 578.5,185.26 578.5,184.11 577.34,184.11 577.34,181.79 576.19,181.79 576.19,180.64 575.03,180.64 575.03,178.32 573.87,178.32 573.87,177.17 572.72,177.17 572.72,174.85 571.56,174.85 571.56,173.7 570.4,173.7 570.4,171.38 569.25,171.38 569.25,170.23 568.09,170.23 568.09,167.91 566.93,167.91 566.93,166.76 565.78,166.76 565.78,165.6 561.15,165.6 "/>
   <polygon class="fil0 str0" points="591.22,27.97 591.22,2.52 568.09,2.52 568.09,27.97 "/>
   <polygon class="fil0 str0" points="395.76,165.6 391.13,165.6 391.13,166.76 388.82,166.76 388.82,167.91 386.51,167.91 386.51,169.07 385.35,169.07 385.35,170.23 384.19,170.23 384.19,171.38 383.04,171.38 383.04,173.7 381.88,173.7 381.88,176.01 380.72,176.01 380.72,179.48 379.57,179.48 379.57,191.05 380.72,191.05 380.72,194.51 381.88,194.51 381.88,197.98 383.04,197.98 383.04,199.14 384.19,199.14 384.19,201.45 385.35,201.45 385.35,202.61 387.66,202.61 387.66,203.77 388.82,203.77 388.82,204.92 392.29,204.92 392.29,206.08 393.45,206.08 393.45,207.24 392.29,207.24 392.29,209.55 395.76,209.55 395.76,210.71 396.92,210.71 396.92,211.86 389.98,211.86 389.98,216.49 398.07,216.49 398.07,215.33 399.23,215.33 399.23,214.18 400.39,214.18 400.39,213.02 401.54,213.02 401.54,209.55 400.39,209.55 400.39,208.39 399.23,208.39 399.23,207.24 396.92,207.24 396.92,206.08 402.7,206.08 402.7,204.92 405.01,204.92 405.01,203.77 407.33,203.77 407.33,202.61 408.48,202.61 408.48,201.45 409.64,201.45 409.64,200.3 410.8,200.3 410.8,199.14 411.95,199.14 411.95,195.67 413.11,195.67 413.11,192.2 410.8,192.2 410.8,191.05 408.48,191.05 408.48,192.2 407.33,192.2 407.33,194.51 406.17,194.51 406.17,196.83 405.01,196.83 405.01,197.98 403.86,197.98 403.86,199.14 402.7,199.14 402.7,200.3 392.29,200.3 392.29,199.14 389.98,199.14 389.98,197.98 388.82,197.98 388.82,196.83 387.66,196.83 387.66,194.51 386.51,194.51 386.51,189.89 385.35,189.89 385.35,180.64 386.51,180.64 386.51,177.17 387.66,177.17 387.66,174.85 388.82,174.85 388.82,173.7 389.98,173.7 389.98,172.54 391.13,172.54 391.13,171.38 393.45,171.38 393.45,170.23 401.54,170.23 401.54,171.38 403.86,171.38 403.86,172.54 405.01,172.54 405.01,173.7 406.17,173.7 406.17,176.01 407.33,176.01 407.33,178.32 409.64,178.32 409.64,177.17 413.11,177.17 413.11,176.01 411.95,176.01 411.95,172.54 410.8,172.54 410.8,171.38 409.64,171.38 409.64,170.23 408.48,170.23 408.48,169.07 407.33,169.07 407.33,167.91 406.17,167.91 406.17,166.76 403.86,166.76 403.86,165.6 399.23,165.6 399.23,164.44 395.76,164.44 "/>
   <polygon class="fil0 str0" points="687.22,165.6 682.59,165.6 682.59,166.76 680.28,166.76 680.28,167.91 677.97,167.91 677.97,169.07 676.81,169.07 676.81,171.38 675.65,171.38 675.65,174.85 674.5,174.85 674.5,177.17 675.65,177.17 675.65,180.64 676.81,180.64 676.81,181.79 677.97,181.79 677.97,182.95 679.12,182.95 679.12,184.11 680.28,184.11 680.28,185.26 682.59,185.26 682.59,186.42 686.06,186.42 686.06,187.58 690.69,187.58 690.69,188.73 695.31,188.73 695.31,189.89 697.63,189.89 697.63,191.05 698.78,191.05 698.78,197.98 697.63,197.98 697.63,199.14 695.31,199.14 695.31,200.3 683.75,200.3 683.75,199.14 682.59,199.14 682.59,197.98 681.44,197.98 681.44,196.83 680.28,196.83 680.28,194.51 679.12,194.51 679.12,192.2 677.97,192.2 677.97,191.05 674.5,191.05 674.5,192.2 673.34,192.2 673.34,194.51 674.5,194.51 674.5,197.98 675.65,197.98 675.65,200.3 676.81,200.3 676.81,201.45 677.97,201.45 677.97,202.61 679.12,202.61 679.12,203.77 681.44,203.77 681.44,204.92 684.91,204.92 684.91,206.08 695.31,206.08 695.31,204.92 697.63,204.92 697.63,203.77 699.94,203.77 699.94,202.61 701.1,202.61 701.1,201.45 702.25,201.45 702.25,200.3 703.41,200.3 703.41,196.83 704.57,196.83 704.57,191.05 703.41,191.05 703.41,188.73 702.25,188.73 702.25,186.42 699.94,186.42 699.94,185.26 698.78,185.26 698.78,184.11 696.47,184.11 696.47,182.95 691.84,182.95 691.84,181.79 687.22,181.79 687.22,180.64 683.75,180.64 683.75,179.48 681.44,179.48 681.44,177.17 680.28,177.17 680.28,173.7 681.44,173.7 681.44,172.54 682.59,172.54 682.59,171.38 684.91,171.38 684.91,170.23 693,170.23 693,171.38 695.31,171.38 695.31,172.54 696.47,172.54 696.47,173.7 697.63,173.7 697.63,176.01 698.78,176.01 698.78,177.17 703.41,177.17 703.41,172.54 702.25,172.54 702.25,170.23 701.1,170.23 701.1,169.07 699.94,169.07 699.94,167.91 698.78,167.91 698.78,166.76 696.47,166.76 696.47,165.6 690.69,165.6 690.69,164.44 687.22,164.44 "/>
   <polygon class="fil0 str0" points="506.79,165.6 502.17,165.6 502.17,166.76 499.85,166.76 499.85,167.91 498.7,167.91 498.7,169.07 497.54,169.07 497.54,171.38 496.38,171.38 496.38,173.7 495.23,173.7 495.23,178.32 496.38,178.32 496.38,181.79 497.54,181.79 497.54,182.95 498.7,182.95 498.7,184.11 501.01,184.11 501.01,185.26 503.32,185.26 503.32,186.42 506.79,186.42 506.79,187.58 511.42,187.58 511.42,188.73 516.04,188.73 516.04,189.89 518.36,189.89 518.36,192.2 519.51,192.2 519.51,196.83 518.36,196.83 518.36,199.14 516.04,199.14 516.04,200.3 504.48,200.3 504.48,199.14 502.17,199.14 502.17,197.98 501.01,197.98 501.01,195.67 499.85,195.67 499.85,192.2 498.7,192.2 498.7,191.05 495.23,191.05 495.23,192.2 494.07,192.2 494.07,195.67 495.23,195.67 495.23,199.14 496.38,199.14 496.38,200.3 497.54,200.3 497.54,201.45 498.7,201.45 498.7,202.61 499.85,202.61 499.85,203.77 501.01,203.77 501.01,204.92 504.48,204.92 504.48,206.08 514.89,206.08 514.89,204.92 518.36,204.92 518.36,203.77 520.67,203.77 520.67,202.61 521.83,202.61 521.83,201.45 522.98,201.45 522.98,199.14 524.14,199.14 524.14,196.83 525.3,196.83 525.3,192.2 524.14,192.2 524.14,188.73 522.98,188.73 522.98,187.58 521.83,187.58 521.83,186.42 520.67,186.42 520.67,185.26 519.51,185.26 519.51,184.11 516.04,184.11 516.04,182.95 512.57,182.95 512.57,181.79 507.95,181.79 507.95,180.64 504.48,180.64 504.48,179.48 502.17,179.48 502.17,178.32 501.01,178.32 501.01,173.7 502.17,173.7 502.17,171.38 504.48,171.38 504.48,170.23 513.73,170.23 513.73,171.38 516.04,171.38 516.04,172.54 517.2,172.54 517.2,173.7 518.36,173.7 518.36,177.17 524.14,177.17 524.14,173.7 522.98,173.7 522.98,171.38 521.83,171.38 521.83,169.07 520.67,169.07 520.67,167.91 518.36,167.91 518.36,166.76 516.04,166.76 516.04,165.6 511.42,165.6 511.42,164.44 506.79,164.44 "/>
   <polygon class="fil0 str0" points="857.24,165.6 852.61,165.6 852.61,166.76 850.3,166.76 850.3,167.91 849.14,167.91 849.14,169.07 847.98,169.07 847.98,171.38 846.83,171.38 846.83,173.7 845.67,173.7 845.67,178.32 846.83,178.32 846.83,181.79 847.98,181.79 847.98,182.95 849.14,182.95 849.14,184.11 851.45,184.11 851.45,185.26 853.77,185.26 853.77,186.42 857.24,186.42 857.24,187.58 861.86,187.58 861.86,188.73 866.49,188.73 866.49,189.89 868.8,189.89 868.8,192.2 869.96,192.2 869.96,196.83 868.8,196.83 868.8,199.14 866.49,199.14 866.49,200.3 854.92,200.3 854.92,199.14 852.61,199.14 852.61,197.98 851.45,197.98 851.45,195.67 850.3,195.67 850.3,192.2 849.14,192.2 849.14,191.05 845.67,191.05 845.67,192.2 844.51,192.2 844.51,195.67 845.67,195.67 845.67,199.14 846.83,199.14 846.83,200.3 847.98,200.3 847.98,201.45 849.14,201.45 849.14,202.61 850.3,202.61 850.3,203.77 851.45,203.77 851.45,204.92 854.92,204.92 854.92,206.08 865.33,206.08 865.33,204.92 868.8,204.92 868.8,203.77 871.12,203.77 871.12,202.61 872.27,202.61 872.27,201.45 873.43,201.45 873.43,199.14 874.59,199.14 874.59,196.83 875.74,196.83 875.74,192.2 874.59,192.2 874.59,188.73 873.43,188.73 873.43,187.58 872.27,187.58 872.27,186.42 871.12,186.42 871.12,185.26 869.96,185.26 869.96,184.11 866.49,184.11 866.49,182.95 863.02,182.95 863.02,181.79 858.39,181.79 858.39,180.64 854.92,180.64 854.92,179.48 852.61,179.48 852.61,178.32 851.45,178.32 851.45,173.7 852.61,173.7 852.61,171.38 854.92,171.38 854.92,170.23 864.18,170.23 864.18,171.38 866.49,171.38 866.49,172.54 867.65,172.54 867.65,173.7 868.8,173.7 868.8,177.17 874.59,177.17 874.59,173.7 873.43,173.7 873.43,171.38 872.27,171.38 872.27,169.07 871.12,169.07 871.12,167.91 868.8,167.91 868.8,166.76 866.49,166.76 866.49,165.6 861.86,165.6 861.86,164.44 857.24,164.44 "/>
   <polygon class="fil0 str0" points="247.72,165.6 243.09,165.6 243.09,166.76 240.78,166.76 240.78,167.91 239.62,167.91 239.62,169.07 238.46,169.07 238.46,171.38 237.31,171.38 237.31,173.7 236.15,173.7 236.15,178.32 237.31,178.32 237.31,181.79 238.46,181.79 238.46,182.95 239.62,182.95 239.62,184.11 241.93,184.11 241.93,185.26 244.25,185.26 244.25,186.42 247.72,186.42 247.72,187.58 252.34,187.58 252.34,188.73 256.97,188.73 256.97,189.89 259.28,189.89 259.28,192.2 260.44,192.2 260.44,196.83 259.28,196.83 259.28,199.14 256.97,199.14 256.97,200.3 245.4,200.3 245.4,199.14 243.09,199.14 243.09,197.98 241.93,197.98 241.93,195.67 240.78,195.67 240.78,192.2 239.62,192.2 239.62,191.05 236.15,191.05 236.15,192.2 234.99,192.2 234.99,195.67 236.15,195.67 236.15,199.14 237.31,199.14 237.31,200.3 238.46,200.3 238.46,201.45 239.62,201.45 239.62,202.61 240.78,202.61 240.78,203.77 241.93,203.77 241.93,204.92 245.4,204.92 245.4,206.08 255.81,206.08 255.81,204.92 259.28,204.92 259.28,203.77 261.6,203.77 261.6,202.61 262.75,202.61 262.75,201.45 263.91,201.45 263.91,199.14 265.07,199.14 265.07,196.83 266.22,196.83 266.22,192.2 265.07,192.2 265.07,188.73 263.91,188.73 263.91,187.58 262.75,187.58 262.75,186.42 261.6,186.42 261.6,185.26 260.44,185.26 260.44,184.11 256.97,184.11 256.97,182.95 253.5,182.95 253.5,181.79 248.87,181.79 248.87,180.64 245.4,180.64 245.4,179.48 243.09,179.48 243.09,178.32 241.93,178.32 241.93,173.7 243.09,173.7 243.09,171.38 245.4,171.38 245.4,170.23 254.66,170.23 254.66,171.38 256.97,171.38 256.97,172.54 258.13,172.54 258.13,173.7 259.28,173.7 259.28,177.17 265.07,177.17 265.07,173.7 263.91,173.7 263.91,171.38 262.75,171.38 262.75,169.07 261.6,169.07 261.6,167.91 259.28,167.91 259.28,166.76 256.97,166.76 256.97,165.6 252.34,165.6 252.34,164.44 247.72,164.44 "/>
   <polygon class="fil0 str0" points="343.71,166.76 342.56,166.76 342.56,194.51 343.71,194.51 343.71,199.14 344.87,199.14 344.87,200.3 346.03,200.3 346.03,202.61 348.34,202.61 348.34,203.77 349.5,203.77 349.5,204.92 352.97,204.92 352.97,206.08 363.38,206.08 363.38,204.92 366.85,204.92 366.85,203.77 368,203.77 368,202.61 369.16,202.61 369.16,201.45 370.31,201.45 370.31,200.3 371.47,200.3 371.47,197.98 372.63,197.98 372.63,192.2 373.78,192.2 373.78,166.76 372.63,166.76 372.63,165.6 368,165.6 368,191.05 366.85,191.05 366.85,196.83 365.69,196.83 365.69,199.14 363.38,199.14 363.38,200.3 352.97,200.3 352.97,199.14 350.65,199.14 350.65,197.98 349.5,197.98 349.5,194.51 348.34,194.51 348.34,166.76 347.18,166.76 347.18,165.6 343.71,165.6 "/>
   <polygon class="fil0 str0" points="638.64,166.76 637.49,166.76 637.49,195.67 638.64,195.67 638.64,199.14 639.8,199.14 639.8,201.45 640.96,201.45 640.96,202.61 642.11,202.61 642.11,203.77 644.43,203.77 644.43,204.92 646.74,204.92 646.74,206.08 658.3,206.08 658.3,204.92 660.62,204.92 660.62,203.77 662.93,203.77 662.93,202.61 664.09,202.61 664.09,201.45 665.24,201.45 665.24,200.3 666.4,200.3 666.4,196.83 667.56,196.83 667.56,165.6 662.93,165.6 662.93,166.76 661.77,166.76 661.77,196.83 660.62,196.83 660.62,197.98 659.46,197.98 659.46,199.14 658.3,199.14 658.3,200.3 646.74,200.3 646.74,199.14 645.58,199.14 645.58,197.98 644.43,197.98 644.43,195.67 643.27,195.67 643.27,166.76 642.11,166.76 642.11,165.6 638.64,165.6 "/>
   <path class="fil0 str0" d="M804.03 186.42l1.16 0 0 -3.47 1.16 0 0 -3.47 1.15 0 0 -2.31 1.16 0 0 -4.63 1.16 0 0 2.31 1.15 0 0 3.47 1.16 0 0 3.47 1.16 0 0 2.32 1.15 0 0 3.47 -10.41 0 0 -1.16zm3.47 -19.66l-1.15 0 0 2.31 -1.16 0 0 2.31 -1.16 0 0 3.47 -1.15 0 0 2.32 -1.16 0 0 3.47 -1.16 0 0 3.47 -1.15 0 0 2.31 -1.16 0 0 3.47 -1.16 0 0 2.31 -1.15 0 0 3.47 -1.16 0 0 2.31 -1.16 0 0 3.47 -1.15 0 0 3.47 5.78 0 0 -3.47 1.16 0 0 -2.31 1.15 0 0 -3.47 1.16 0 0 -2.31 16.19 0 0 3.47 1.16 0 0 2.31 1.16 0 0 3.47 1.15 0 0 2.31 5.78 0 0 -3.47 -1.15 0 0 -3.47 -1.16 0 0 -2.31 -1.16 0 0 -2.31 -1.15 0 0 -3.47 -1.16 0 0 -2.31 -1.15 0 0 -3.47 -1.16 0 0 -2.32 -1.16 0 0 -3.47 -1.15 0 0 -2.31 -1.16 0 0 -2.31 -1.16 0 0 -3.47 -1.15 0 0 -2.32 -1.16 0 0 -2.31 -4.63 0 0 1.16z"/>
   <polygon class="fil0 str0" points="708.04,171.38 720.76,171.38 720.76,204.92 725.39,204.92 725.39,203.77 726.54,203.77 726.54,171.38 738.11,171.38 738.11,170.23 739.27,170.23 739.27,166.76 738.11,166.76 738.11,165.6 708.04,165.6 "/>
   <polygon class="fil0 str0" points="313.64,166.76 312.49,166.76 312.49,204.92 337.93,204.92 337.93,200.3 336.77,200.3 336.77,199.14 318.27,199.14 318.27,165.6 313.64,165.6 "/>
   <polygon class="fil0 str0" points="547.27,166.76 546.12,166.76 546.12,204.92 551.9,204.92 551.9,165.6 547.27,165.6 "/>
   <polygon class="fil0 str0" points="832.95,166.76 831.79,166.76 831.79,204.92 837.57,204.92 837.57,165.6 832.95,165.6 "/>
   <polygon class="fil0 str0" points="783.21,166.76 782.06,166.76 782.06,204.92 787.84,204.92 787.84,166.76 786.68,166.76 786.68,165.6 783.21,165.6 "/>
   <polygon class="fil0 str0" points="431.61,156.35 429.3,156.35 429.3,157.5 428.15,157.5 428.15,158.66 426.99,158.66 426.99,163.29 430.46,163.29 430.46,162.13 431.61,162.13 431.61,160.97 433.93,160.97 433.93,162.13 437.4,162.13 437.4,163.29 442.02,163.29 442.02,162.13 443.18,162.13 443.18,160.97 444.34,160.97 444.34,155.19 442.02,155.19 442.02,156.35 440.87,156.35 440.87,157.5 436.24,157.5 436.24,156.35 432.77,156.35 432.77,155.19 431.61,155.19 "/>
  </g>
 </g>
</svg>
